# xmcd
#
# Track frame offsets:
#   150
#   13563
#   31970
#   48754
#   65135
#   81238
#   97187
#   114805
#   129514
#   140972
#   152870
#   164509
#   179568
#   194280
#   209742
#   226757
#   238832
#   252249
#   264343
#   277164
#   290009
#   304811
#   318739
#   332124
#   344325
#
# Disc length: 4793 seconds
#
# Revision: 0
# Processed by: cddbd v1.5.1PL0 Copyright (c) Steve Scherf et al.
# Submitted via: Media_Universe 3.0
#
DISCID=8712b719
DTITLE=George Strait - The Road Less Traveled and Holding My Own
DYEAR=1900
DGENRE=Country
TTITLE0=She'll Leave You With A Smile
TTITLE1=Run
TTITLE2=Stars On The Water
TTITLE3=Living And Living Well
TTITLE4=The Real Thing
TTITLE5=Dont Tell Me Youre Not In Love
TTITLE6=The Road Less Traveled
TTITLE7=The Middle Of Nowhere
TTITLE8=Good Time Charley's
TTITLE9=My Life's Been Grand
TTITLE10=Youre Right I'm Wrong
TTITLE11=Holding My Own
TTITLE12=Gone As A Girl Can Get
TTITLE13=So Much Like My Dad
TTITLE14=Trains Make Me Lonesome
TTITLE15=All Of Me (Loves All Of You)
TTITLE16=Wonderland Of Love
TTITLE17=Faults And All
TTITLE18=It's Alright With Me
TTITLE19=Here We Go Again
TTITLE20=Does Fort Worth Ever Cross Your Mind
TTITLE21=A Father's Love
TTITLE22=Baby's Got Her Blue Jeans On
TTITLE23=Big Balls In Cowtown
TTITLE24=I Get Carried Away
EXTD=
EXTT0=
EXTT1=
EXTT2=
EXTT3=
EXTT4=
EXTT5=
EXTT6=
EXTT7=
EXTT8=
EXTT9=
EXTT10=
EXTT11=
EXTT12=
EXTT13=
EXTT14=
EXTT15=
EXTT16=
EXTT17=
EXTT18=
EXTT19=
EXTT20=
EXTT21=
EXTT22=
EXTT23=
EXTT24=
PLAYORDER=
